<svg xmlns="http://www.w3.org/2000/svg" version="1.1" xmlns:xlink="http://www.w3.org/1999/xlink" xmlns:svgjs="http://svgjs.dev/svgjs" width="1440" height="560" viewBox="0 0 1440 560">
    <g mask="url(&quot;#SvgjsMask1616&quot;)" fill="none">
        <path d="M136.614,119.479C167.009,120.732,200.551,116.971,216.991,91.375C234.448,64.194,228.796,29.05,212.671,1.058C196.516,-26.987,168.955,-46.92,136.614,-48.155C102.023,-49.476,65.809,-35.845,49.781,-5.163C34.567,23.959,48.171,58.228,66.953,85.188C82.809,107.948,108.899,118.336,136.614,119.479" fill="rgba(94, 28, 142, 0.4)" class="triangle-float3"></path>
        <path d="M1038.294,513.305C1086.221,512.124,1127.951,481.34,1149.823,438.678C1169.916,399.487,1161.249,354.152,1139.534,315.837C1117.449,276.87,1082.991,244.78,1038.294,241.893C988.418,238.672,937.258,258.25,911.55,301.111C885.197,345.048,890.546,400.436,916.819,444.421C942.403,487.253,988.418,514.534,1038.294,513.305" fill="rgba(94, 28, 142, 0.4)" class="triangle-float1"></path>
        <path d="M236.74,546.426C259.087,545.768,276.945,528.85,286.687,508.727C295.234,491.073,291.649,470.83,281.451,454.076C271.709,438.072,255.467,427.256,236.74,426.67C216.919,426.05,197.708,434.488,186.905,451.118C175.041,469.381,171.33,492.53,181.421,511.829C192.222,532.486,213.439,547.113,236.74,546.426" fill="rgba(94, 28, 142, 0.4)" class="triangle-float3"></path>
        <path d="M96.246,522.965C147.127,522.874,191.097,490.627,216.376,446.47C241.481,402.617,245.944,349.031,220.967,305.105C195.718,260.701,147.323,235.775,96.246,235.203C44.099,234.619,-7.552,256.969,-33.411,302.256C-59.083,347.216,-50.858,402.263,-24.634,446.903C1.211,490.897,45.222,523.057,96.246,522.965" fill="rgba(94, 28, 142, 0.4)" class="triangle-float2"></path>
        <path d="M1304.79,264.8C1341.397,265.004,1376.583,246.933,1394.278,214.886C1411.454,183.779,1405.966,145.811,1387.128,115.681C1369.453,87.411,1338.127,72.259,1304.79,71.754C1270.45,71.234,1236.06,83.898,1218.015,113.12C1199.097,143.756,1199.135,182.643,1217.015,213.896C1235.016,245.362,1268.54,264.598,1304.79,264.8" fill="rgba(94, 28, 142, 0.4)" class="triangle-float1"></path>
    </g>
    <defs>

        <style>
                @keyframes float1 {
                    0%{transform: translate(0, 0)}
                    50%{transform: translate(-20px, 30px)}
                    100%{transform: translate(0, 0)}
                }

                .triangle-float1 {
                    animation: float1 7s infinite;
                }

                @keyframes float2 {
                    0%{transform: translate(0, 0)}
                    50%{transform: translate(-50px, -5px)}
                    100%{transform: translate(0, 0)}
                }

                .triangle-float2 {
                    animation: float2 10s infinite;
                }

                @keyframes float3 {
                    0%{transform: translate(0, 0)}
                    50%{transform: translate(0, -20px)}
                    100%{transform: translate(0, 0)}
                }

                .triangle-float3 {
                    animation: float3 8s infinite;
                }
        </style>
    </defs>
</svg>