<svg xmlns="http://www.w3.org/2000/svg" xmlns:xlink="http://www.w3.org/1999/xlink" version="1.1" width="1000" height="1000" viewBox="0 0 1000 1000" xml:space="preserve">
<g transform="matrix(2.5522 0 0 2.5522 500.0029 500.0034)" id="385732">
<g style="" vector-effect="non-scaling-stroke">
		<g transform="matrix(6.3338 0 0 6.3338 0.0004 0.0004)" id="SvgjsG3167">
<path style="stroke: none; stroke-width: 1; stroke-dasharray: none; stroke-linecap: butt; stroke-dashoffset: 0; stroke-linejoin: miter; stroke-miterlimit: 4; is-custom-font: none; font-file-url: none; fill: rgb(3,47,64); fill-rule: nonzero; opacity: 1;" transform=" translate(-24.8, -28.115)" d="M 23.11 55.78 L 1.69 43.41 A 3.39 3.39 0 0 1 0 40.48 V 15.75 a 3.39 3.39 0 0 1 1.69 -2.94 L 23.11 0.45 a 3.39 3.39 0 0 1 3.39 0 l 21.41 12.37 a 3.39 3.39 0 0 1 1.69 2.94 v 24.72 a 3.39 3.39 0 0 1 -1.69 2.94 L 26.5 55.78 a 3.39 3.39 0 0 1 -3.39 0 z" stroke-linecap="round"/>
</g>
		<g transform="matrix(6.8668 0 0 6.8668 -0.2512 0.7546)" id="SvgjsG3168">
<path style="stroke: none; stroke-width: 1; stroke-dasharray: none; stroke-linecap: butt; stroke-dashoffset: 0; stroke-linejoin: miter; stroke-miterlimit: 4; is-custom-font: none; font-file-url: none; fill: rgb(15,201,242); fill-rule: nonzero; opacity: 1;" transform=" translate(-16.44, -25.08)" d="M 10.36 14.559999999999999 l 0 21.08 l 6.76 0 q 2.8 0 5.04 -1.44 q 2.12 -1.4 3.32 -3.76 t 1.2 -5.16 q 0 -2.92 -1.14 -5.36 t -3.26 -3.88 q -2.28 -1.48 -5.24 -1.48 l -6.68 0 z M 3.72 14.559999999999999 l -1.92 -4.4 l 15.2 0 q 3.96 0 7.24 2.04 q 3.16 1.96 5 5.36 t 1.84 7.4 q 0 3 -1.18 5.94 t -3.26 5.14 q -2 2.16 -4.28 3.08 q -2.2 0.88 -5.24 0.88 l -11.04 0 l 0 -25.44 l -2.36 0 z" stroke-linecap="round"/>
</g>
</g>
</g>
</svg>